<svg version="1.2" xmlns="http://www.w3.org/2000/svg" viewBox="0 0 2900 2000" width="2900" height="2000"><style>.a{opacity:.5;fill:#b58db6}</style><path class="a" d="m76.2-46h13.9v3000h-13.9zm129.7 0h13.9v3000h-13.9zm103.7 0h13.9v3000h-13.9zm129.7 0h13.9v3000h-13.9zm103.8 0h13.8v3000h-13.8zm129.6 0h13.9v3000h-13.9zm103.8 0h13.9v3000h-13.9zm129.7 0h13.9v3000h-13.9zm109.5 0h13.9v3000h-13.9zm129.7 0h13.8v3000h-13.8zm103.7 0h13.9v3000h-13.9zm129.7 0h13.9v3000h-13.9zm103.7 0h13.9v3000h-13.9zm129.7 0h13.9v3000h-13.9zm103.8 0h13.9v3000h-13.9zm129.6 0h13.9v3000h-13.9zm126.8 0h13.9v3000h-13.9zm129.7 0h13.9v3000h-13.9zm103.8 0h13.9v3000h-13.9zm129.7 0h13.8v3000h-13.8zm103.7 0h13.9v3000h-13.9zm129.7 0h13.9v3000h-13.9zm103.7 0h13.9v3000h-13.9zm129.7 0h13.9v3000h-13.9z"/><path class="a" d="m-50.4 2827.7v-13.9l2999.9-7.3 0.1 13.9zm-0.3-129.7l-0.1-13.9 3000-7.3 0.1 13.9zm-0.3-103.7v-13.9l3000-7.3v13.9zm-0.3-129.7l-0.1-13.9 3000-7.3 0.1 13.9zm-0.3-103.7v-13.9l3000-7.3v13.9zm-0.3-129.7v-13.9l2999.9-7.3 0.1 13.9zm-0.3-103.8v-13.8l3000-7.3v13.9zm-0.3-129.7v-13.9l3000-7.3v13.9zm-0.3-109.5v-13.9l3000-7.3v13.9zm-0.3-129.7v-13.9l3000-7.3v13.9zm-0.3-103.7v-13.9l3000-7.3v13.9zm-0.3-129.7v-13.9l3000-7.3v13.9zm-0.2-103.8l-0.1-13.9 3000-7.2v13.8zm-0.3-129.6v-13.9l3000-7.3v13.9zm-0.2-103.8l-0.1-13.9 3000-7.3 0.1 13.9zm-0.4-129.7v-13.8l3000-7.3v13.8zm-0.3-126.8v-13.8l3000-7.3v13.9zm-0.3-129.7v-13.9l3000-7.3v13.9zm-0.3-103.8v-13.9l3000-7.3v13.9zm-0.3-129.6v-13.9l3000-7.3v13.9zm-0.2-103.8l-0.1-13.9 3000-7.3v13.9zm-0.3-129.7v-13.9l3000-7.2v13.8zm-0.2-103.7l-0.1-13.9 3000-7.3 0.1 13.9zm-0.4-129.7v-13.9l3000-7.3v13.9zm-14.7-111.4v-8.7h3043.2v8.7zm0 2930.8v-8.6h3043.3v8.6z"/></svg>